PathFileType	4	(X/Y/Z)	29_2_24_p1_0-495.trc
DataRate	CameraRate	NumFrames	NumMarkers	Units	OrigDataRate	OrigDataStartFrame	OrigNumFrames
60.0	60.0	6	27	m	60.0	186	496
Frame#	Time	RHip			RKnee			RAnkle			RBigToe			RSmallToe			RHeel			LHip			LKnee			LAnkle			LBigToe			LSmallToe			LHeel			Neck			Head			Nose			RShoulder			RElbow			RWrist			RThumb			RIndex			RPinky			LShoulder			LElbow			LWrist			LThumb			LIndex			LPinky			
		X1	Y1	Z1	X2	Y2	Z2	X3	Y3	Z3	X4	Y4	Z4	X5	Y5	Z5	X6	Y6	Z6	X7	Y7	Z7	X8	Y8	Z8	X9	Y9	Z9	X10	Y10	Z10	X11	Y11	Z11	X12	Y12	Z12	X13	Y13	Z13	X14	Y14	Z14	X15	Y15	Z15	X16	Y16	Z16	X17	Y17	Z17	X18	Y18	Z18	X19	Y19	Z19	X20	Y20	Z20	X21	Y21	Z21	X22	Y22	Z22	X23	Y23	Z23	X24	Y24	Z24	X25	Y25	Z25	X26	Y26	Z26	X27	Y27	Z27	
186	3.1	0.3336883336413622	0.5668446657390692	0.8680225767302933	0.3225204702306965	0.6802264199467026	1.3097830553024596	0.30446242460238104	0.8099627640743521	1.7462594453668379	0.2940037082852878	0.6300118673624928	1.7713838924739251	0.3510589288479543	0.628880037299721	1.7572326125752673	0.27137670530907415	0.9022097223360616	1.8067353396436066	0.12736666825288065	0.5694162486630073	0.8492206942922705	0.115241857048578	0.6840694984890971	1.3065636611736002	0.1030099246693808	0.7955812704320953	1.7273511978890013	0.13080617624876498	0.594001983402123	1.7401063967887087	0.07061243458141883	0.6341524721464604	1.7459650494987173	0.12123968854423935	0.8721403480494697	1.7773252722836537	0.3277627472349791	0.526189015530144	0.33139406532808163	0.3789138749732143	0.48205587700583635	0.09692086703241842	0.3709545514575068	0.3822475939924401	0.2456597802948529	0.462321176090098	0.5544807376528534	0.4416474435558469	0.3882929105236621	0.37201255141371975	0.6281933756327691	0.40746158891085643	0.24291481047647553	0.5113452492768092	0.41864059684701993	0.18033230429539965	0.4288974841425709	0.43897359549759435	0.1418732328838046	0.42619890624175155	0.4141126676775077	0.10186914898928787	0.454260702436003	0.15961621333907625	0.5309722384790605	0.3795661656239415	0.07943536895664445	0.41843435993300204	0.5951943609320449	0.15363671656510874	0.24023001502823088	0.4702898643825841	0.168663254478301	0.16755947254010026	0.39415837901912293	0.17782186956146367	0.15037545082238055	0.38822567789014684	0.17123132379728848	0.1394991017840448	0.41703684219905607
187	3.1166666666666667	0.33365281398632574	0.5668896820897608	0.8681556680592939	0.3224940956563035	0.6804330310822652	1.3099824424740236	0.30042265683144603	0.8259759678504316	1.748552538516465	0.2939177582446846	0.63008386164274	1.7714699044266409	0.3509891601140523	0.6292781116624042	1.757392737861232	0.2712863308409279	0.9024939916314353	1.8069197077115238	0.12729681754955424	0.5695563904011026	0.8494611160346451	0.11410618417258002	0.6852337035631954	1.310905097468703	0.10351393404177424	0.7987227771525021	1.7331471562286722	0.130805215311541	0.5940282895167075	1.740100788809784	0.07051891949825242	0.634393440754954	1.7461090168716438	0.11491556535928345	0.8905274266086302	1.78459777716902	0.32779082527395426	0.5264406525262801	0.33158514380742266	0.3828868222106782	0.4687392016051415	0.09871948684628506	0.37503696209948556	0.3835159982456771	0.24569545992521277	0.4624171633779888	0.5545884340517322	0.4416922221602519	0.3879803947222796	0.37004456495246024	0.6208334292364854	0.4073331907215985	0.2416430225486278	0.5081153399740928	0.41870469995801224	0.18117376742101413	0.42892718699878524	0.44209588952382955	0.15187186940499	0.4259271376728092	0.41770622628733206	0.11101124370173088	0.45737698179220254	0.15676006985830912	0.5186676540413138	0.3799750096782231	0.08162451712355893	0.42987029766781876	0.5993653871047447	0.15361783835744633	0.24058359288869283	0.4701352069334176	0.16859737523022675	0.16914074339095617	0.39778528116680617	0.17099803871673797	0.14961771295188242	0.4013475046226594	0.16860806740791215	0.1293725507896195	0.42001120783808726
188	3.1333333333333333	0.33366259872475196	0.5667713576662848	0.8678013034240519	0.31886366928645826	0.6674919599076811	1.3021467372635276	0.3057785922232143	0.8083683346778049	1.7414271917122472	0.29397465494080754	0.6299665348893412	1.7713608010484583	0.3510475957309418	0.6287242258749307	1.7571745865323518	0.27136629960970565	0.9023238185117652	1.8063997983184665	0.1281898719682693	0.5684508814104435	0.8451626383060329	0.11540228145332253	0.6827965647922141	1.31054094531304	0.10301298745093942	0.7954596202597672	1.7273194318640241	0.13081587018779217	0.5942631158726925	1.7402599645873968	0.07042262261479874	0.6347326144955323	1.7463442203761368	0.12102439465131702	0.8711268694253468	1.7768847856449228	0.32791211980589047	0.5265296852923211	0.3316283576533627	0.3828536546182964	0.4686660221416555	0.09867848189625458	0.3790047616075519	0.3709570401239017	0.24653161782900934	0.4623750296952415	0.5546002057216453	0.4414682950319106	0.3881327773491496	0.37148796775017306	0.6280996135843048	0.40735610629449726	0.2415886238312033	0.5080949780929106	0.4216936146607492	0.19225237309136067	0.4291573806923543	0.4422606759879841	0.15176282427231103	0.4261713464563774	0.41784101307376104	0.09216791037249443	0.45739045231923603	0.15978984200065977	0.5310732479096851	0.37611424007496475	0.08159959141527123	0.4299555671631823	0.5993976262199098	0.1539851393702757	0.2407708931650159	0.47047750918768416	0.17529178020294645	0.16825827255514658	0.39717790899517874	0.17533071565406294	0.15017713610729572	0.4027523898670182	0.1734468684069862	0.12781878012335998	0.4152361638463352
189	3.15	0.33406987140915934	0.5690020219765162	0.8719565244369087	0.322454453263638	0.6801022771451771	1.3098053806956997	0.30447701845847913	0.809702542274779	1.7461234193895192	0.29408182775937014	0.6300788137371426	1.7713824712131025	0.3510870257978378	0.6291953992536788	1.7572728341673056	0.2712900130672659	0.9023551227233619	1.806628815608739	0.1281497036222345	0.5686604395347564	0.8454565359754653	0.11350562371014832	0.6713942131591234	1.3119547329872674	0.10294399801252879	0.7956598127093446	1.7273907982199612	0.12610008947411544	0.5917550230225441	1.7392828454412472	0.0646430146560738	0.6493865450922094	1.7525034240529676	0.12100882537316447	0.8716501453849825	1.7770448916829518	0.3278471103870003	0.5283984980210149	0.33552060814919243	0.38586625771676847	0.47929987537603663	0.09757562352713448	0.38337547955905726	0.37201456527211074	0.2467469090710677	0.462312056259621	0.5545721062853632	0.44157135979030543	0.388079309385513	0.37158822511408124	0.6281291166848618	0.40739524881388556	0.24152962208451328	0.5080416995346188	0.41879455804264676	0.1824121648283817	0.42929870455931707	0.4421758388726011	0.15115291862125801	0.42647579255037504	0.41784257721498574	0.09192259872309974	0.4571749060102788	0.15968446914667658	0.531420944882741	0.37638956037173205	0.08161261736516374	0.43012267195640563	0.5994387680126776	0.15887836159774738	0.22993747726644995	0.46753074654019977	0.17541707143351562	0.1677771646900377	0.39680001768684603	0.1787937280880376	0.1495466292490168	0.3958333226758814	0.17781431076834148	0.1272586026570481	0.4157226552932694
190	3.1666666666666665	0.334061788448659	0.5691111376056388	0.8719577302719145	0.3190611062373104	0.6665283044860847	1.3060450923754325	0.29921354133549627	0.827326964343295	1.753093949359894	0.29403174688326744	0.6297394197782432	1.7712864739908032	0.35094077540374363	0.6285381775239365	1.7570993689679903	0.2712353279829307	0.9025702322185203	1.806419811062391	0.12816407419667222	0.568646391383781	0.8454866796438864	0.11539857280961514	0.6828436221517421	1.3105657683629806	0.10291553329070983	0.7958169523141302	1.7274498965477416	0.12613166005408938	0.5915638140375973	1.7391524989147202	0.07031931638691982	0.6346137772921291	1.7461994021932317	0.11500215156726899	0.8906274663749391	1.784701965978991	0.3279547278311983	0.5282248086242445	0.3355510236122581	0.38307049603088245	0.46797630576233307	0.09889469345175403	0.3832131727947943	0.371805541703499	0.24663998654983676	0.4627193177211813	0.5532701851385154	0.4416181899228132	0.38809164460092105	0.3715237110540009	0.6281372737553896	0.4069937958530276	0.24189202689574832	0.5113087726993282	0.4189584584035915	0.18236501492747273	0.4293005795291021	0.4420500716130559	0.15034979873701373	0.42975763243923004	0.4176664033714321	0.0917749010372922	0.4572427506606513	0.15979891371710028	0.5312121675335095	0.3793971915283335	0.08657516463110332	0.41832770098430855	0.598927509445471	0.15873335313593348	0.2302224653198038	0.46711572890616593	0.17572546849021348	0.16793645425440668	0.3932785142728315	0.1788116465301229	0.1494033577480623	0.39534393524345446	0.17674928294199724	0.1296079784396989	0.4172006586292154
191	3.183333333333333	0.334072231446306	0.5691182141854131	0.8719089460810997	0.32232736828026604	0.6800257827455569	1.3098148648681256	0.2959635434258267	0.8113374467110839	1.7470335327355568	0.2940806316941896	0.6298746568586517	1.7713709349032025	0.3509657558147096	0.6289395703456725	1.7572452817352584	0.2712477179141605	0.9023209822525805	1.806934001758558	0.12822279530004463	0.5685392318103514	0.8454476906861543	0.11311947720372602	0.6687941715773285	1.3067769828120992	0.10290959758647733	0.7956645266719231	1.7273854255770682	0.12611299478179328	0.5914675537093554	1.7391732825983288	0.06444030386087538	0.649622958908773	1.7526396656060066	0.12117890859115858	0.871824872318961	1.7772093714479495	0.3279660283282341	0.5262031608658627	0.33167616180322224	0.38601189785430035	0.48062165920838384	0.10072275712829482	0.38326123118941063	0.3717763190648285	0.24655783961290229	0.46231725385266015	0.5539201995920973	0.4453586892512015	0.3877882816075358	0.3693269292242567	0.6243380286339075	0.4073961423899207	0.24139796371786545	0.508054339377687	0.41606087686649884	0.17179078936766637	0.42923819985577705	0.43906143778561774	0.14127859541101687	0.42975680322608173	0.4145251522589376	0.10098586230777415	0.46040763003053575	0.1597701176596021	0.5312261556858153	0.37627445514388924	0.08659677685064882	0.418257628547365	0.5989265707306174	0.15398333552653137	0.2410366137907365	0.46703763002254167	0.17939883303936105	0.17030622677257576	0.3934641332499824	0.17844677146974317	0.1500820366993703	0.39763567992725835	0.17616722642157032	0.13035002196409926	0.4195144680991078
